<?xml version="1.0" encoding="utf-8"?>
<!-- Generator: Adobe Illustrator 28.2.0, SVG Export Plug-In . SVG Version: 6.00 Build 0)  -->
<svg version="1.1" id="Capa_1" xmlns="http://www.w3.org/2000/svg" xmlns:xlink="http://www.w3.org/1999/xlink" x="0px" y="0px"
	 viewBox="0 0 64 64" style="enable-background:new 0 0 64 64;" xml:space="preserve">
<style type="text/css">
	.st0{fill:#FCDBC2;}
	.st1{fill:#FFFFFF;}
	.st2{fill:#080809;}
	.st3{fill:#EAE220;}
	.st4{fill:#DD830A;}
	.st5{fill:#D11317;}
	.st6{fill:#E7E000;}
</style>
<circle class="st0" cx="32" cy="32" r="32"/>
<path class="st1" d="M3.65,31.17c1.65-4.24,4.02-8.26,4.77-12.75c0.48-2.9,0.31-6.03,1.8-8.56c2.67-4.52,9.25-5.19,13.87-4.2
	c3.41,0.73,6.86,1.93,10.31,1.41c2.35-0.35,4.5-1.48,6.73-2.3c4.5-1.65,8.12-0.3,11.29,3.2c1.79,1.97,3,4.48,3.38,7.11
	c0.34,2.32,0.82,5.8,0.02,7.99c-0.46,1.26-1.16,2.42-1.64,3.67c-1.3,3.39-0.83,7.41,1.14,10.45c1.07,1.65,1.89,2.5,2.42,4.51
	c0.57,2.18,0.87,4.49,0.33,6.71c-0.61,2.53-2.3,4.7-4.32,6.34c-2.02,1.64-4.37,2.82-6.72,3.94c-3.98,1.91-8.39,3.78-12.68,2.71
	c-3.77-0.94-6.63-3.97-10.07-5.77c-3.93-2.06-8.51-2.47-12.73-3.85C7.95,50.61,3.54,48,2.39,44.1C1.19,40.03,2.16,35,3.65,31.17z"/>
<g>
	<g>
		<g>
			<path class="st1" d="M39.74,41.68c0.91-3.57-1.24-6.93-5.16-8l-0.26-0.07l-3.21,12.57l0.32,0.08
				C35.26,47.17,38.84,45.2,39.74,41.68z"/>
			<path class="st2" d="M44.33,51.61c-0.2-0.76-0.79-0.8-1.46-0.66c-0.64,0.14-1.29,0.21-1.91,0.38c-0.68,0.19-1.02,0.05-1.28-0.64
				c-0.42-1.1-1.01-1.65-1.51-2.62c-0.07-0.12-0.12-0.24-0.19-0.38c-0.05-0.11-0.11-0.23-0.19-0.35c1.92-1.1,3.34-2.9,3.91-5.15
				c0.58-2.26,0.19-4.53-1.01-6.45c-0.87-1.36-2.12-2.48-3.67-3.26c-0.61-0.31-1.24-0.56-1.94-0.75l-2.26-0.59l-0.27,1.05
				l-3.8,14.86l-0.08,0.35c-0.36,1.07-0.75,2.12-1.04,3.2c-0.2,0.73-0.57,0.86-1.29,0.78c-1.03-0.11-2.06-0.18-3.09-0.22
				c-0.55-0.02-0.95,0.24-1,0.79c-0.05,0.59,0.29,0.95,0.92,1.07c0.28,0.05,0.57,0.04,0.86,0.07c0.86,0.07,2-0.14,2.51,0.3
				c0.56,0.49-0.12,1.47-0.22,2.24c-0.01,0.07-0.04,0.15-0.05,0.22c-0.08,0.62,0.15,1.09,0.84,1.23c0.66,0.13,0.99-0.25,1.12-0.79
				c0.19-0.74,0.32-1.49,0.53-2.48c1.07,0.65,1.97,1.21,2.89,1.75c0.63,0.37,1.32,0.76,1.79-0.06c0.45-0.77-0.19-1.2-0.83-1.56
				c-0.9-0.51-1.78-1.05-2.7-1.53c-0.54-0.28-0.65-0.6-0.46-1.12c0.38-1.06,0.73-2.12,1.09-3.2l0.37,0.09
				c1.85,0.44,3.67,0.36,5.3-0.19c0.19,0.41,0.46,0.92,0.8,1.54c1.22,2.49,1.22,2.49-1.24,3.68c-0.1,0.06-0.22,0.08-0.33,0.14
				c-0.51,0.29-0.74,0.72-0.45,1.26c0.3,0.55,0.82,0.65,1.38,0.41c0.66-0.27,1.35-0.53,1.95-0.91c0.61-0.39,0.84-0.11,1.09,0.37
				c0.35,0.66,0.66,1.35,1.07,1.99c0.29,0.47,0.8,0.57,1.29,0.34c0.51-0.23,0.65-0.66,0.45-1.16c-0.14-0.36-0.37-0.7-0.57-1.04
				c-0.81-1.43-0.81-1.43,0.8-1.74c0.28-0.06,0.56-0.11,0.84-0.16C44.03,52.64,44.53,52.36,44.33,51.61z M34.32,33.61l0.26,0.07
				c3.91,1.07,6.06,4.44,5.16,8c-0.9,3.53-4.48,5.49-8.31,4.58l-0.32-0.08L34.32,33.61z"/>
		</g>
		<g>
			<path class="st2" d="M13.99,35.4c-0.8-0.59-1.61-1.14-2.23-1.9c-1.88-2.3-1.03-5.54,1.81-6.42c0.92-0.29,0.98-0.64,0.91-1.46
				c-0.22-2.26,0.36-4.37,1.61-6.28c0.53-0.82,1.23-1.52,2.12-1.94c1.22-0.57,2.39-0.22,3.14,0.89c0.64,0.94,0.8,2,0.89,3.09
				c0.36,4.71,2.37,8.59,5.94,11.65c0.8,0.68,0.79,1.18,0.09,1.93c-2.41,2.59-3.72,5.65-3.57,9.25c0.04,1.05-0.46,1.42-1.43,1.35
				c-2.31-0.18-4.6-0.43-6.82-1.18c-4.29-1.45-5.39-4.78-2.78-8.5C13.76,35.71,13.87,35.56,13.99,35.4z M21.84,43.58
				c0.39-0.06,1,0.3,1.03-0.55c0.1-3.18,1.28-5.96,3.25-8.42c0.33-0.41,0.31-0.68-0.07-1.03c-0.77-0.71-1.44-1.52-2.09-2.34
				c-1.32-1.69-2.21-3.64-2.93-5.62c-0.53-1.47-0.45-3.15-0.68-4.74c-0.1-0.73-0.14-1.7-0.96-1.87c-0.84-0.17-1.36,0.67-1.78,1.32
				c-1.33,2.05-1.69,4.27-1.04,6.64c0.31,1.15,0.02,1.49-1.16,1.57c-0.44,0.04-0.89,0.09-1.32,0.21c-1.66,0.45-2.19,2.03-1.16,3.41
				c0.73,0.99,1.82,1.5,2.84,2.12c0.71,0.44,0.94,0.95,0.28,1.62c-0.7,0.72-1.24,1.48-1.58,2.49c-0.55,1.63-0.29,2.83,1.22,3.65
				C17.58,43.08,19.69,43.37,21.84,43.58z"/>
			<path class="st3" d="M21.84,43.58c-2.15-0.21-4.26-0.51-6.17-1.53c-1.52-0.81-1.77-2.02-1.22-3.65c0.35-1.01,0.88-1.77,1.58-2.49
				c0.66-0.67,0.43-1.18-0.28-1.62c-1-0.63-2.1-1.13-2.84-2.12c-1.03-1.39-0.5-2.97,1.16-3.4c0.43-0.11,0.88-0.18,1.32-0.21
				c1.17-0.08,1.47-0.43,1.16-1.57c-0.65-2.38-0.29-4.6,1.04-6.64c0.42-0.66,0.94-1.5,1.78-1.32c0.81,0.17,0.85,1.14,0.96,1.87
				c0.23,1.58,0.15,3.27,0.68,4.74c0.72,1.97,1.6,3.92,2.93,5.62c0.65,0.82,1.32,1.63,2.09,2.34c0.37,0.35,0.39,0.63,0.07,1.03
				c-1.97,2.46-3.14,5.24-3.25,8.42C22.84,43.88,22.23,43.53,21.84,43.58z"/>
		</g>
		<g>
			<path class="st2" d="M32.38,19.06c0.18-0.66,0.06-1.15-1.13-1.09c-1.05,0.05-1.63-0.75-1.82-1.78c-0.26-1.4,0.05-2.48,1.05-2.91
				c0.61-0.26,0.67-0.56,0.63-1.16C30.93,10,32.26,8.8,34.34,9.1c0.34,0.05,0.65,0.31,0.83-0.32c0.51-1.69,1.14-2.08,2.65-1.81
				c1.43,0.25,2.37,1.39,2.33,2.85c-0.01,0.22-0.04,0.45-0.09,0.66c-0.16,0.62-0.1,0.99,0.67,1.16c1.09,0.23,1.79,1.08,2.29,2.01
				c0.35,0.64,0.78,0.88,1.5,0.91c1.4,0.07,2.7,0.51,3.81,1.44c0.51,0.43,0.83,0.96,1.06,1.56c0.32,0.83,0.16,1.46-0.83,1.68
				c-0.84,0.19-1.67,0.45-2.51,0.59c-0.72,0.11-0.84,0.41-0.77,1.12c0.3,2.84,0.38,5.68-0.78,8.39c-0.13,0.31-0.27,0.62-0.44,0.91
				c-1.05,1.78-1.39,1.88-3.27,1.09c-3.35-1.42-6.79-1.65-10.32-0.8c-0.25,0.07-0.51,0.13-0.76,0.19c-0.29,0.07-0.66,0.22-0.85-0.02
				c-0.27-0.31,0.17-0.51,0.29-0.74C30.86,26.6,32.16,23.13,32.38,19.06z M43.56,23.83c-0.02-3.29-0.55-6.46-2.21-9.37
				c-0.46-0.8-1.09-1.17-2-1.17c-2.51,0-5.04,1.86-5.12,5.37c-0.07,3-0.73,5.84-1.8,8.61c-0.33,0.84-0.13,1.01,0.71,0.95
				c2.84-0.22,5.6,0.13,8.21,1.31c0.75,0.34,1.02-0.01,1.27-0.57C43.36,27.33,43.62,25.62,43.56,23.83z"/>
			<path class="st4" d="M43.56,23.83c0.07,1.78-0.21,3.5-0.94,5.13c-0.25,0.56-0.52,0.91-1.27,0.57c-2.61-1.18-5.37-1.53-8.21-1.31
				c-0.84,0.07-1.04-0.1-0.71-0.95c1.07-2.77,1.74-5.61,1.8-8.61c0.07-3.52,2.6-5.38,5.12-5.37c0.9,0,1.54,0.36,2,1.17
				C43.01,17.37,43.54,20.54,43.56,23.83z"/>
			<path class="st5" d="M31.03,16.64c0.53,0.41,1.43,0.78,1.66-0.07c0.57-2.12,2.73-4.02,4.8-4.67c0.4-0.12,0.84-0.22,1.12-0.52
				c0.33-0.36,0.35-0.9,0.33-1.39c-0.02-0.6-0.07-1.27-0.51-1.68C38.08,8,37.54,7.94,37.13,8.15c-0.27,0.15-0.48,0.4-0.65,0.66
				c-0.45,0.7-0.7,1.53-0.73,2.36c-0.4-0.33-0.82-0.64-1.31-0.82c-0.49-0.19-1.04-0.24-1.52-0.06c-0.48,0.2-0.86,0.67-0.85,1.19
				c0.01,0.35,0.19,0.66,0.31,0.99c0.12,0.33,0.19,0.71,0,1c-0.17,0.27-0.5,0.37-0.8,0.46c-0.48,0.14-1,0.31-1.25,0.74
				c-0.2,0.33-0.18,0.75-0.03,1.1C30.46,16.13,30.73,16.41,31.03,16.64z"/>
			<path class="st6" d="M45.46,18.48c0.66-0.51,1.81-0.6,2.64-0.47c-0.07,0-0.36-0.43-0.43-0.49c-0.17-0.16-0.35-0.31-0.54-0.44
				c-0.38-0.26-0.81-0.46-1.26-0.59c-0.36-0.1-1.02-0.29-1.39-0.16c-0.29,0.11-0.1,0.26,0.06,0.41c0.18,0.17,0.35,0.36,0.51,0.56
				C45.38,17.75,45.29,17.94,45.46,18.48z"/>
		</g>
	</g>
</g>
</svg>
