<?xml version="1.0" encoding="utf-8"?>
<!-- Generator: Adobe Illustrator 28.2.0, SVG Export Plug-In . SVG Version: 6.00 Build 0)  -->
<svg version="1.1" id="Capa_1" xmlns="http://www.w3.org/2000/svg" xmlns:xlink="http://www.w3.org/1999/xlink" x="0px" y="0px"
	 viewBox="0 0 1080 1080" style="enable-background:new 0 0 1080 1080;" xml:space="preserve">
<style type="text/css">
	.st0{fill:#FFFFFF;}
	.st1{fill:#080808;}
	.st2{fill:#EDE70D;}
	.st3{fill:#DD8300;}
	.st4{fill:#D10010;}
	.st5{fill:#F3FF00;}
</style>
<path class="st0" d="M61.55,526.06c27.86-71.56,67.88-139.47,80.5-215.22c8.15-48.92,5.19-101.78,30.42-144.48
	c45.04-76.23,156.09-87.58,234.06-70.93c57.62,12.3,115.73,32.52,173.98,23.75c39.65-5.97,75.93-24.97,113.57-38.77
	c75.92-27.84,137.05-5.08,190.55,53.93c30.13,33.23,50.65,75.58,57.09,120.04c5.68,39.19,13.9,97.81,0.27,134.89
	c-7.81,21.24-19.53,40.85-27.61,61.98c-21.87,57.15-14.03,125,19.17,176.28c18.01,27.82,31.97,42.26,40.77,76.11
	c9.56,36.75,14.65,75.83,5.61,113.24c-10.32,42.71-38.75,79.33-72.85,107.06c-34.09,27.72-73.82,47.51-113.43,66.54
	c-67.13,32.25-141.65,63.71-213.92,45.7c-63.66-15.86-111.83-66.95-169.94-97.42c-66.4-34.81-143.54-41.62-214.8-64.9
	c-60.85-19.88-135.19-63.9-154.62-129.75C20.15,675.53,36.43,590.58,61.55,526.06z"/>
<g>
	<g>
		<g>
			<path class="st0" d="M670.66,703.27c15.32-60.17-21-117.02-87.02-135.03l-4.42-1.11l-54.17,212.09l5.37,1.42
				C595.02,795.98,655.5,762.81,670.66,703.27z"/>
			<path class="st1" d="M748.05,870.99c-3.32-12.79-13.27-13.58-24.64-11.21c-10.74,2.37-21.79,3.47-32.22,6.47
				c-11.53,3.16-17.21,0.79-21.64-10.74c-7.11-18.64-17.06-27.79-25.43-44.22c-1.11-2.05-2.05-4.11-3.16-6.47
				c-0.79-1.9-1.9-3.95-3.16-5.84c32.37-18.64,56.38-48.96,66.01-86.86c9.79-38.22,3.16-76.44-17.06-108.81
				c-14.69-22.9-35.85-41.85-61.91-54.96c-10.27-5.21-21-9.48-32.69-12.63l-38.06-9.95l-4.58,17.69l-64.12,250.79l-1.42,5.84
				c-6.16,18-12.63,35.85-17.53,54.01c-3.32,12.32-9.63,14.53-21.79,13.11c-17.37-1.9-34.74-3-52.12-3.63
				c-9.32-0.32-16.11,4.11-16.9,13.27c-0.79,9.95,4.9,16.11,15.48,18c4.74,0.79,9.63,0.63,14.53,1.11
				c14.53,1.26,33.8-2.37,42.32,5.05c9.48,8.21-2.05,24.79-3.63,37.74c-0.16,1.26-0.63,2.53-0.79,3.79
				c-1.42,10.42,2.53,18.32,14.21,20.69c11.21,2.21,16.74-4.26,18.95-13.27c3.16-12.48,5.37-25.11,9-41.85
				c18,10.9,33.32,20.37,48.8,29.53c10.58,6.32,22.27,12.79,30.16-0.95c7.58-12.95-3.16-20.21-14.06-26.37
				c-15.16-8.53-30.01-17.69-45.48-25.74c-9.16-4.74-10.9-10.11-7.74-18.95c6.47-17.85,12.32-35.85,18.32-54.01l6.32,1.58
				c31.27,7.42,61.91,6,89.39-3.16c3.16,6.95,7.74,15.48,13.58,26.06c20.53,42.01,20.53,42.01-21,62.06
				c-1.74,0.95-3.79,1.42-5.53,2.37c-8.69,4.9-12.48,12.16-7.58,21.32c5.05,9.32,13.9,10.9,23.22,6.95
				c11.21-4.58,22.74-9,32.85-15.32c10.27-6.63,14.21-1.9,18.32,6.32c5.84,11.21,11.21,22.74,18,33.64
				c4.9,7.9,13.42,9.63,21.79,5.69c8.69-3.95,10.9-11.21,7.58-19.58c-2.37-6.16-6.32-11.84-9.63-17.53
				c-13.74-24.16-13.74-24.16,13.42-29.37c4.74-0.95,9.48-1.9,14.21-2.68C742.99,888.36,751.36,883.62,748.05,870.99z
				 M579.22,567.14l4.42,1.11c66.01,18,102.34,74.86,87.02,135.03c-15.16,59.54-75.65,92.7-140.24,77.23l-5.37-1.42L579.22,567.14z"
				/>
		</g>
		<g>
			<path class="st1" d="M236.05,597.3c-13.58-9.95-27.16-19.27-37.59-32.06c-31.74-38.85-17.37-93.49,30.48-108.34
				c15.48-4.9,16.58-10.74,15.32-24.64c-3.63-38.22,6.16-73.75,27.16-105.97c9-13.9,20.69-25.58,35.85-32.69
				c20.53-9.63,40.27-3.79,52.91,15c10.74,15.79,13.58,33.8,15,52.12c6.16,79.44,39.96,144.98,100.28,196.62
				c13.42,11.53,13.27,19.9,1.58,32.53c-40.74,43.75-62.7,95.39-60.33,156.03c0.63,17.69-7.74,24-24.16,22.74
				c-39.01-3-77.7-7.26-115.13-19.9c-72.33-24.48-90.97-80.7-46.9-143.4C232.26,602.67,234,600.15,236.05,597.3z M368.55,735.49
				c6.63-0.95,16.9,5.05,17.37-9.32c1.74-53.69,21.64-100.6,54.8-142.13c5.53-6.95,5.21-11.53-1.26-17.37
				c-12.95-12-24.32-25.58-35.22-39.48c-22.27-28.58-37.27-61.43-49.43-94.76c-9-24.79-7.58-53.22-11.53-79.91
				c-1.74-12.32-2.37-28.74-16.27-31.59c-14.21-2.84-22.9,11.37-30.01,22.27c-22.43,34.59-28.58,72.01-17.53,112.13
				c5.21,19.42,0.32,25.11-19.58,26.53c-7.42,0.63-15,1.58-22.27,3.47c-27.95,7.58-36.95,34.27-19.58,57.49
				c12.32,16.74,30.8,25.27,47.85,35.85c12,7.42,15.79,15.95,4.74,27.32c-11.84,12.16-21,24.95-26.69,42.01
				c-9.32,27.48-4.9,47.69,20.53,61.59C296.69,726.96,332.23,731.86,368.55,735.49z"/>
			<path class="st2" d="M368.55,735.49c-36.32-3.47-71.86-8.53-104.07-25.9c-25.58-13.74-29.85-34.11-20.53-61.59
				c5.84-17.06,14.85-29.85,26.69-42.01c11.05-11.37,7.26-19.9-4.74-27.32c-16.9-10.58-35.38-19.11-47.85-35.85
				c-17.37-23.37-8.37-50.06,19.58-57.33c7.26-1.9,14.85-3,22.27-3.47c19.74-1.42,24.79-7.26,19.58-26.53
				c-10.9-40.11-4.9-77.54,17.53-112.13c7.11-11.05,15.79-25.27,30.01-22.27c13.74,2.84,14.37,19.27,16.27,31.59
				c3.95,26.69,2.53,55.12,11.53,79.91c12.16,33.16,27.01,66.17,49.43,94.76c10.9,13.9,22.27,27.48,35.22,39.48
				c6.32,5.84,6.63,10.58,1.26,17.37c-33.16,41.53-53.06,88.44-54.8,142.13C385.45,740.54,375.18,734.54,368.55,735.49z"/>
		</g>
		<g>
			<path class="st1" d="M546.38,321.57c3-11.21,0.95-19.42-19.11-18.48c-17.69,0.79-27.48-12.63-30.8-30.01
				c-4.42-23.69,0.79-41.85,17.69-49.11c10.27-4.42,11.37-9.48,10.58-19.58c-2.84-35.69,19.58-55.91,54.8-50.85
				c5.69,0.79,10.9,5.21,14.06-5.37c8.53-28.58,19.27-35.06,44.69-30.48c24.16,4.26,39.96,23.37,39.32,48.01
				c-0.16,3.79-0.63,7.58-1.58,11.21c-2.68,10.42-1.74,16.74,11.37,19.58c18.32,3.95,30.16,18.16,38.69,33.95
				c5.84,10.74,13.11,14.85,25.27,15.32c23.69,1.11,45.64,8.53,64.28,24.32c8.53,7.26,14.06,16.27,17.85,26.37
				c5.37,14.06,2.68,24.64-14.06,28.43c-14.21,3.16-28.11,7.58-42.32,9.95c-12.16,1.9-14.21,6.95-12.95,18.95
				c5.05,47.85,6.47,95.86-13.11,141.5c-2.21,5.21-4.58,10.42-7.42,15.32c-17.69,30.01-23.53,31.74-55.12,18.32
				c-56.54-24-114.65-27.79-174.19-13.58c-4.26,1.11-8.53,2.21-12.79,3.16c-4.9,1.11-11.05,3.63-14.37-0.32
				c-4.58-5.21,2.84-8.53,4.9-12.48C520.79,448.85,542.74,390.26,546.38,321.57z M735.1,402.11
				c-0.32-55.59-9.32-108.97-37.27-158.08c-7.74-13.58-18.48-19.74-33.8-19.74c-42.32,0-85.12,31.43-86.39,90.65
				c-1.11,50.69-12.32,98.55-30.32,145.29c-5.53,14.21-2.21,17.06,12,16.11c47.85-3.63,94.44,2.21,138.5,22.11
				c12.63,5.69,17.21-0.16,21.48-9.63C731.62,461.17,736.04,432.27,735.1,402.11z"/>
			<path class="st3" d="M735.1,402.11c1.11,30.01-3.47,59.06-15.79,86.54c-4.26,9.48-8.84,15.32-21.48,9.63
				c-44.06-19.9-90.65-25.74-138.5-22.11c-14.21,1.11-17.53-1.74-12-16.11c18-46.75,29.37-94.6,30.32-145.29
				c1.26-59.38,43.9-90.81,86.39-90.65c15.16,0,26.06,6.16,33.8,19.74C725.78,293.14,734.78,346.68,735.1,402.11z"/>
			<path class="st4" d="M523.63,280.82c9,6.95,24.16,13.11,27.95-1.26c9.63-35.85,46.11-67.91,81.02-78.81
				c6.79-2.05,14.21-3.63,18.95-8.84c5.53-6,5.84-15.16,5.53-23.37c-0.32-10.11-1.11-21.48-8.69-28.27
				c-5.84-5.21-14.85-6.32-21.79-2.68c-4.58,2.53-8.05,6.79-10.9,11.21c-7.58,11.84-11.84,25.74-12.32,39.8
				c-6.79-5.53-13.9-10.74-22.11-13.9c-8.21-3.16-17.53-4.11-25.58-0.95c-8.05,3.32-14.53,11.37-14.37,20.06
				c0.16,5.84,3.16,11.21,5.21,16.74c2.05,5.53,3.16,12,0,16.9c-2.84,4.58-8.37,6.32-13.42,7.74c-8.05,2.37-16.9,5.21-21.16,12.48
				c-3.32,5.53-3,12.63-0.47,18.64C514,272.13,518.58,276.87,523.63,280.82z"/>
			<path class="st5" d="M767.16,311.77c11.05-8.53,30.48-10.11,44.54-7.9c-1.11,0-6.16-7.26-7.26-8.21
				c-2.84-2.68-5.84-5.21-9.16-7.42c-6.47-4.42-13.74-7.74-21.32-9.95c-6-1.74-17.21-4.9-23.37-2.68c-4.9,1.9-1.74,4.42,0.95,6.95
				c3,2.84,5.84,6,8.53,9.48C765.73,299.61,764.31,302.77,767.16,311.77z"/>
		</g>
	</g>
</g>
</svg>
